Coordinates
version=1
nRows=5
nColumns=40
inDegrees=yes

Units are S.I. units (second, meters, Newtons, ...)
If the header above contains a line with 'inDegrees', this indicates whether rotational values are in degrees (yes) or radians (no).

endheader
time	pelvis_tilt	pelvis_list	pelvis_rotation	pelvis_tx	pelvis_ty	pelvis_tz	hip_flexion_r	hip_adduction_r	hip_rotation_r	knee_angle_r	knee_angle_r_beta	ankle_angle_r	subtalar_angle_r	mtp_angle_r	hip_flexion_l	hip_adduction_l	hip_rotation_l	knee_angle_l	knee_angle_l_beta	ankle_angle_l	subtalar_angle_l	mtp_angle_l	lumbar_extension	lumbar_bending	lumbar_rotation	arm_flex_r	arm_add_r	arm_rot_r	elbow_flex_r	pro_sup_r	wrist_flex_r	wrist_dev_r	arm_flex_l	arm_add_l	arm_rot_l	elbow_flex_l	pro_sup_l	wrist_flex_l	wrist_dev_l
     10.17500000	     13.30063557	      4.07593832	   -174.67822979	      0.31000952	      0.75157147	     -0.94790498	     31.59872000	    -36.57487170	    -27.26192230	     21.45027773	      0.37437797	    -15.22172549	      0.00000000	      0.00000000	     38.05541752	    -38.05724958	    -16.78896909	     13.51090456	      0.23580977	    -21.47163726	      0.00000000	      0.00000000	    -29.39128604	     -1.68235427	      2.68516906	     30.01416551	    -15.15956310	     51.72949741	     19.31037789	     85.11648330	      0.00000000	      0.00000000	     38.30567593	    -16.65186506	     70.86878011	     17.01849762	     76.96704930	      0.00000000	      0.00000000
     10.18000000	     13.57452184	      4.68070164	   -174.28017965	      0.31110360	      0.75062252	     -0.94732500	     31.56785894	    -36.38314825	    -28.43676981	     21.64591542	      0.37779249	    -15.33251590	      0.00000000	      0.00000000	     39.27300258	    -38.32158832	    -15.69428678	     13.76532946	      0.24025032	    -21.44317014	      0.00000000	      0.00000000	    -29.36668751	     -0.89799353	      2.63360472	     29.95820708	    -15.28479448	     50.77798558	     19.61950617	     84.22681604	      0.00000000	      0.00000000	     38.33174601	    -16.48183842	     70.14462707	     17.02386966	     76.36531410	      0.00000000	      0.00000000
     10.18500000	     13.77801686	      4.15547020	   -174.82784423	      0.31211883	      0.75030890	     -0.94826628	     32.46968650	    -36.52137954	    -26.96195998	     21.61211883	      0.37720263	    -15.29243554	      0.00000000	      0.00000000	     38.72743115	    -38.17312577	    -16.85485288	     13.53604917	      0.23624863	    -21.60617124	      0.00000000	      0.00000000	    -29.56568757	     -1.73918946	      2.86137870	     30.50577872	    -15.14301280	     51.87701957	     19.20891129	     85.00208895	      0.00000000	      0.00000000	     38.77642182	    -16.53595355	     70.88380833	     16.89185011	     76.81027940	      0.00000000	      0.00000000
     10.19000000	     13.90654139	      4.17748909	   -174.85222962	      0.31301982	      0.74988477	     -0.94841815	     32.69000692	    -36.51941158	    -26.94100591	     21.62250879	      0.37738397	    -15.30154484	      0.00000000	      0.00000000	     38.94722310	    -38.20031396	    -16.90626785	     13.53158683	      0.23617074	    -21.71585000	      0.00000000	      0.00000000	    -29.77274980	     -1.76955873	      2.90926776	     30.72825736	    -15.06599877	     51.72256789	     19.09562155	     84.81686391	      0.00000000	      0.00000000	     39.05079459	    -16.54028957	     71.06195344	     16.89338287	     76.93748341	      0.00000000	      0.00000000
     10.19500000	     14.19328541	      4.54346371	   -174.50530904	      0.31424889	      0.74907940	     -0.94791418	     32.74444494	    -36.44594825	    -27.51901588	     21.65192033	      0.37789730	    -15.41656780	      0.00000000	      0.00000000	     39.81815471	    -38.21750502	    -15.85130692	     13.47142077	      0.23512065	    -21.93964578	      0.00000000	      0.00000000	    -29.77680045	     -1.26236530	      2.81349871	     30.81800501	    -15.04103598	     51.04985188	     19.06605572	     84.44010111	      0.00000000	      0.00000000	     39.21718765	    -16.23858491	     70.65980989	     16.56512019	     76.53606996	      0.00000000	      0.00000000
